<svg width="640" height="512" viewBox="0 0 640 512" fill="none" xmlns="http://www.w3.org/2000/svg">
<g clip-path="url(#clip0_1995_5079)">
<path d="M624 352H608V237.3C608 220.21 601.35 204.15 589.26 192.06L512 114.8C500.1 102.8 483.6 96 466.8 96H416V48C416 21.5 394.5 0 368 0H48C21.5 0 0 21.5 0 48V368C0 394.5 21.5 416 48 416H66.16C74.03 361.9 119.8 320 176 320C232.28 320 278.5 361.86 286.4 416H353.63C361.5 361.9 407.7 320 464 320C520.22 320 565.1 361.93 573.8 416H624C632.812 416 640 408.797 640 400V368C640 359.2 632.8 352 624 352ZM208 272C146.1 272 96 221.9 96 160C96 98.1 146.13 48 208 48C269.87 48 320 98.13 320 160C320 221.87 269.9 272 208 272ZM544 256H416V160H466.75L544 237.3V256Z" fill="#FF2709"/>
<path opacity="0.4" d="M176 352C131.8 352 96 387.8 96 432C96 476.2 131.8 512 176 512C220.2 512 256 476.2 256 432C256 387.8 220.2 352 176 352ZM464 352C419.82 352 384 387.82 384 432C384 476.18 419.82 512 464 512C508.18 512 544 476.18 544 432C544 387.8 508.2 352 464 352ZM248 144H224V88C224 83.63 220.4 80 216 80H200C195.6 80 192 83.63 192 88V168C192 172.4 195.6 176 200 176H248C252.4 176 256 172.4 256 168V152C256 147.6 252.4 144 248 144Z" fill="#FF2709"/>
</g>
<defs>
<clipPath id="clip0_1995_5079">
<rect width="640" height="512" fill="white"/>
</clipPath>
</defs>
</svg>
